<svg width="16" height="16" viewBox="0 0 16 16" fill="none" xmlns="http://www.w3.org/2000/svg">
<g id="award-03">
<path id="Icon" d="M5.24577 10.3073L4.66667 14.6673L7.7256 12.832C7.82537 12.7721 7.87525 12.7422 7.9285 12.7305C7.97561 12.7201 8.02439 12.7201 8.0715 12.7305C8.12475 12.7422 8.17463 12.7721 8.2744 12.832L11.3333 14.6673L10.7546 10.3054M10.9506 2.83324C11.0536 3.08225 11.2512 3.28018 11.5 3.38352L12.3726 3.74497C12.6216 3.84813 12.8195 4.04598 12.9226 4.29501C13.0258 4.54405 13.0258 4.82386 12.9226 5.07289L12.5615 5.94489C12.4583 6.19403 12.4581 6.47412 12.5618 6.72314L12.9223 7.59488C12.9735 7.71823 12.9998 7.85044 12.9998 7.98396C12.9998 8.11748 12.9736 8.2497 12.9225 8.37306C12.8714 8.49642 12.7965 8.6085 12.702 8.7029C12.6076 8.7973 12.4955 8.87217 12.3721 8.92322L11.5002 9.28442C11.2512 9.38738 11.0532 9.58501 10.9499 9.83387L10.5885 10.7065C10.4853 10.9555 10.2875 11.1534 10.0385 11.2565C9.78943 11.3597 9.50963 11.3597 9.26061 11.2565L8.38864 10.8953C8.13961 10.7924 7.85991 10.7927 7.61104 10.8959L6.73845 11.2569C6.48956 11.3598 6.21001 11.3597 5.96118 11.2566C5.71236 11.1536 5.51463 10.9559 5.41141 10.7072L5.04986 9.83428C4.9469 9.58527 4.74927 9.38733 4.50042 9.284L3.62783 8.92254C3.37892 8.81944 3.18113 8.62171 3.07794 8.37282C2.97475 8.12393 2.97461 7.84425 3.07755 7.59526L3.43873 6.72326C3.54163 6.47422 3.54142 6.19451 3.43815 5.94563L3.07749 5.07238C3.02635 4.94903 3.00002 4.81682 3 4.6833C2.99998 4.54978 3.02627 4.41756 3.07736 4.2942C3.12846 4.17084 3.20336 4.05876 3.29778 3.96436C3.39221 3.86996 3.50431 3.79509 3.62768 3.74404L4.49965 3.38284C4.74844 3.27997 4.94624 3.08258 5.04965 2.83401L5.41109 1.96139C5.51424 1.71236 5.71209 1.5145 5.96111 1.41135C6.21013 1.3082 6.48993 1.3082 6.73896 1.41135L7.61092 1.77254C7.85995 1.87544 8.13965 1.87523 8.38853 1.77196L9.26149 1.41191C9.51048 1.30881 9.79022 1.30884 10.0392 1.41197C10.2882 1.5151 10.486 1.7129 10.5892 1.96187L10.9507 2.83475L10.9506 2.83324Z" stroke="url(#paint0_linear_20756_821)" stroke-width="1.5" stroke-linecap="round" stroke-linejoin="round"/>
</g>
<defs>
<linearGradient id="paint0_linear_20756_821" x1="12.8912" y1="7.79046" x2="3.05065" y2="8.1388" gradientUnits="userSpaceOnUse">
<stop stop-color="#FF97D6"/>
<stop offset="1" stop-color="#F8B994"/>
</linearGradient>
</defs>
</svg>
