<svg xmlns="http://www.w3.org/2000/svg" width="23" height="39" viewBox="0 0 23 39" fill="none">
  <path d="M5.71342 25.8634C3.64252 24.1875 2.31836 21.6251 2.31836 18.7532C2.31836 13.7043 6.41099 9.61133 11.4596 9.61133C16.5081 9.61133 20.6008 13.7043 20.6008 18.7532C20.6008 21.6251 19.2766 24.1875 17.2056 25.8634" stroke="white" stroke-opacity="0.5" stroke-width="1.11433"/>
  <path d="M8.4082 26.3672L11.4592 29.4184L14.5102 26.3672" stroke="#FF97D5" stroke-width="1.11433"/>
  <path fill-rule="evenodd" clip-rule="evenodd" d="M10.9026 14.3501H9.60268C8.78228 14.3501 8.11719 15.0153 8.11719 15.8357V16.9678C8.11719 17.6495 8.58106 18.2438 9.24236 18.4091L13.4065 19.4501C13.5719 19.4915 13.6879 19.6401 13.6879 19.8105V21.4068C13.6879 21.612 13.5216 21.7783 13.3165 21.7783H9.60268C9.39756 21.7783 9.23133 21.612 9.23133 21.4068V20.4784H8.11719V21.4068C8.11719 22.2273 8.78228 22.8925 9.60268 22.8925H10.9026V24.6567H12.0167V22.8925H13.3165C14.137 22.8925 14.8021 22.2273 14.8021 21.4068V19.8105C14.8021 19.1288 14.3381 18.5346 13.6768 18.3692L9.5126 17.3282C9.34732 17.2868 9.23133 17.1383 9.23133 16.9678V15.8357C9.23133 15.6307 9.39756 15.4644 9.60268 15.4644H13.3165C13.5216 15.4644 13.6879 15.6306 13.6879 15.8357V16.7643H14.8021V15.8357C14.8021 15.0153 14.137 14.3501 13.3165 14.3501H12.0167V12.5859H10.9026V14.3501Z" fill="#FF97D5"/>
</svg>