<svg width="40" height="24" viewBox="0 0 40 24" fill="none" xmlns="http://www.w3.org/2000/svg">
<path d="M23.6383 14.9029C22.0356 21.3315 15.5244 25.2438 9.09503 23.6407C2.66833 22.0381 -1.24401 15.5265 0.359382 9.09837C1.96137 2.66903 8.47253 -1.24361 14.8999 0.359081C21.3289 1.96177 25.241 8.47405 23.6381 14.903L23.6382 14.9029H23.6383Z" fill="#F3BA2F"/>
<path fill-rule="evenodd" clip-rule="evenodd" d="M12 7.616L8.89267 10.7233L8.89274 10.7232L7.0848 8.9152L12 4L16.9168 8.91667L15.1088 10.7247L12 7.616ZM5.80806 10.1917L4 12L5.80794 13.8077L7.616 11.9996L5.80806 10.1917ZM8.89267 13.2769L12 16.384L15.1087 13.2754L16.9177 15.0824L16.9168 15.0834L12 20L7.0848 15.0848L7.08224 15.0822L8.89267 13.2769ZM18.1921 10.1927L16.384 12.0008L18.192 13.8087L20 12.0006L18.1921 10.1927Z" fill="white"/>
<path d="M13.8334 11.9987H13.8341L11.9996 10.1641L10.6437 11.5196L10.4879 11.6755L10.1666 11.9968L10.1641 11.9993L10.1666 12.002L11.9996 13.8352L13.8343 12.0006L13.8352 11.9996L13.8335 11.9987" fill="white"/>
<path d="M39.7941 11.9997C39.7941 18.5108 34.5153 23.7924 27.9996 23.7924C21.4839 23.7924 16.2051 18.5108 16.2051 11.9997C16.2051 5.48856 21.4839 0.207031 27.9996 0.207031C34.5153 0.207031 39.7941 5.48856 39.7941 11.9997Z" fill="url(#paint0_linear_20847_2683)"/>
<path fill-rule="evenodd" clip-rule="evenodd" d="M28 0.414654C21.5961 0.414654 16.411 5.6051 16.411 12C16.411 18.3949 21.5961 23.5853 28 23.5853C34.4039 23.5853 39.589 18.3949 39.589 12C39.589 5.6051 34.4039 0.414654 28 0.414654ZM16 12C16 5.37262 21.3726 0 28 0C34.6274 0 40 5.37262 40 12C40 18.6274 34.6274 24 28 24C21.3726 24 16 18.6274 16 12Z" fill="url(#paint1_linear_20847_2683)"/>
<path d="M27.9996 2.17188L36.1643 7.08046V16.8976L27.9996 21.8061L19.835 16.8976V7.08046L27.9996 2.17188Z" fill="black"/>
<path d="M26.9019 5.95393L26.9018 4.60938L20.9082 7.69606V11.2928L25.6274 8.93247V10.1575L20.9082 12.5178V14.0577L26.9019 10.978V6.86435L22.6369 9.1165V8.10068L26.9019 5.95393Z" fill="url(#paint2_linear_20847_2683)"/>
<path d="M27.9618 12.3145L26.902 13.045V15.3941H22.2837L21.2363 15.8661L22.2837 16.4169H26.902V18.7772L28.025 19.3953L29.0975 18.7772V16.4231H33.7032L34.8514 15.8549L33.7032 15.3828H29.0975V13.045L27.9618 12.3145Z" fill="url(#paint3_linear_20847_2683)"/>
<path fill-rule="evenodd" clip-rule="evenodd" d="M29.0977 11.0662V4.60352L35.0913 7.69435V9.84109L34.3974 10.0097L35.0913 10.774V14.1571L29.0977 11.0662ZM30.4731 8.70594V10.9539L33.8169 12.7185V10.3918L30.4731 8.70594ZM30.3595 7.4808V5.94102L33.8169 7.69435V9.22293L30.3595 7.4808Z" fill="url(#paint4_linear_20847_2683)"/>
<defs>
<linearGradient id="paint0_linear_20847_2683" x1="34.5174" y1="1.84433" x2="15.9992" y2="1.84507" gradientUnits="userSpaceOnUse">
<stop offset="0.495" stop-color="#FF80CD"/>
<stop offset="0.765" stop-color="#F8B994"/>
</linearGradient>
<linearGradient id="paint1_linear_20847_2683" x1="29.0383" y1="-10.7833" x2="27.3864" y2="27.6486" gradientUnits="userSpaceOnUse">
<stop offset="0.365" stop-color="#FBABAF"/>
<stop offset="0.511995" stop-color="#FBABAF"/>
<stop offset="0.575" stop-color="#E199E6"/>
<stop offset="0.7725" stop-color="#F6CCF0"/>
<stop offset="1" stop-color="#E254CE"/>
</linearGradient>
<linearGradient id="paint2_linear_20847_2683" x1="39.2799" y1="9.86561" x2="13.6144" y2="11.2897" gradientUnits="userSpaceOnUse">
<stop offset="0.275" stop-color="#FF97D6"/>
<stop offset="0.665" stop-color="#F8B994"/>
</linearGradient>
<linearGradient id="paint3_linear_20847_2683" x1="39.28" y1="9.86451" x2="13.6145" y2="11.2886" gradientUnits="userSpaceOnUse">
<stop offset="0.275" stop-color="#FF97D6"/>
<stop offset="0.665" stop-color="#F8B994"/>
</linearGradient>
<linearGradient id="paint4_linear_20847_2683" x1="39.2801" y1="9.8639" x2="13.6147" y2="11.288" gradientUnits="userSpaceOnUse">
<stop offset="0.275" stop-color="#FF97D6"/>
<stop offset="0.665" stop-color="#F8B994"/>
</linearGradient>
</defs>
</svg>
