<svg xmlns="http://www.w3.org/2000/svg" width="24" height="39" viewBox="0 0 24 39" fill="none">
  <path fill-rule="evenodd" clip-rule="evenodd" d="M4.01027 10.2676C2.4335 10.2676 1.15527 11.5459 1.15527 13.1228V25.6856C1.15527 27.2625 2.4335 28.5408 4.01027 28.5408H20.3789C21.9557 28.5408 23.2339 27.2625 23.2339 25.6856V13.1228C23.2339 11.5459 21.9557 10.2676 20.3789 10.2676H4.01027ZM2.29727 13.1228C2.29727 12.1766 3.06421 11.4097 4.01027 11.4097H20.3789C21.325 11.4097 22.0919 12.1766 22.0919 13.1228V14.0745H2.29727V13.1228ZM2.29727 15.2166V25.6856C2.29727 26.6318 3.06421 27.3987 4.01027 27.3987H20.3789C21.325 27.3987 22.0919 26.6318 22.0919 25.6856V15.2166H2.29727Z" fill="white" fill-opacity="0.5"/>
  <path d="M2.29492 21.3083H8.38798L10.2914 18.4531L14.098 24.1635L16.0013 21.3083H22.1164" stroke="#FF97D5" stroke-width="1.14219"/>
</svg>