<svg xmlns="http://www.w3.org/2000/svg" width="24" height="40" viewBox="0 0 24 40" fill="none">
  <path fill-rule="evenodd" clip-rule="evenodd" d="M3.99563 10.8691C2.41886 10.8691 1.14062 12.1474 1.14062 13.7243V26.2872C1.14062 27.864 2.41885 29.1424 3.99562 29.1424H20.3643C21.9411 29.1424 23.2193 27.864 23.2193 26.2872V13.7243C23.2193 12.1475 21.9411 10.8691 20.3643 10.8691H3.99563ZM2.28262 13.7243C2.28262 12.7782 3.04956 12.0112 3.99563 12.0112H20.3643C21.3103 12.0112 22.0773 12.7782 22.0773 13.7243V14.6761H2.28262V13.7243ZM2.28262 15.8181V26.2872C2.28262 27.2333 3.04956 28.0003 3.99562 28.0003H20.3643C21.3103 28.0003 22.0773 27.2333 22.0773 26.2872V15.8181H2.28262Z" fill="white" fill-opacity="0.5"/>
  <path d="M6.85059 18.5781L10.182 21.9095L6.85059 25.2409" stroke="#FF97D5" stroke-width="1.14219"/>
  <path d="M12.5605 23.2422H18.2715" stroke="#FF97D5" stroke-width="1.14219"/>
</svg>