<svg width="16" height="16" viewBox="0 0 16 16" fill="none" xmlns="http://www.w3.org/2000/svg">
<g id="UI icon/copy/light">
<path id="Subtract" d="M4 3.33333H9.33333C9.70152 3.33333 10 3.63181 10 4V4.66667H11.3333V4C11.3333 2.89543 10.4379 2 9.33333 2H4C2.89543 2 2 2.89543 2 4V9.33333C2 10.4379 2.89543 11.3333 4 11.3333H4.66667V10H4C3.63181 10 3.33333 9.70152 3.33333 9.33333V4C3.33333 3.63181 3.63181 3.33333 4 3.33333Z" fill="#E0E0E0"/>
<path id="Rectangle 323 (Stroke)" fill-rule="evenodd" clip-rule="evenodd" d="M12.0003 5.99935H6.66699C6.2988 5.99935 6.00033 6.29783 6.00033 6.66602V11.9993C6.00033 12.3675 6.2988 12.666 6.66699 12.666H12.0003C12.3685 12.666 12.667 12.3675 12.667 11.9993V6.66602C12.667 6.29783 12.3685 5.99935 12.0003 5.99935ZM6.66699 4.66602C5.56242 4.66602 4.66699 5.56145 4.66699 6.66602V11.9993C4.66699 13.1039 5.56242 13.9993 6.66699 13.9993H12.0003C13.1049 13.9993 14.0003 13.1039 14.0003 11.9993V6.66602C14.0003 5.56145 13.1049 4.66602 12.0003 4.66602H6.66699Z" fill="#E0E0E0"/>
</g>
</svg>
