<svg width="21" height="21" viewBox="0 0 21 21" fill="none" xmlns="http://www.w3.org/2000/svg">
<g id="mail-01">
<path id="Icon" d="M2.33398 6.75391L9.13808 11.5168C9.68906 11.9025 9.96455 12.0953 10.2642 12.17C10.5289 12.236 10.8057 12.236 11.0704 12.17C11.3701 12.0953 11.6456 11.9025 12.1966 11.5168L19.0007 6.75391M6.33398 17.5872H15.0007C16.4008 17.5872 17.1008 17.5872 17.6356 17.3148C18.106 17.0751 18.4885 16.6926 18.7282 16.2222C19.0007 15.6874 19.0007 14.9874 19.0007 13.5872V8.25391C19.0007 6.85377 19.0007 6.15371 18.7282 5.61893C18.4885 5.14852 18.106 4.76607 17.6356 4.52639C17.1008 4.25391 16.4008 4.25391 15.0007 4.25391H6.33398C4.93385 4.25391 4.23379 4.25391 3.69901 4.52639C3.2286 4.76607 2.84615 5.14852 2.60647 5.61893C2.33398 6.15371 2.33398 6.85377 2.33398 8.25391V13.5872C2.33398 14.9874 2.33398 15.6874 2.60647 16.2222C2.84615 16.6926 3.2286 17.0751 3.69901 17.3148C4.23379 17.5872 4.93385 17.5872 6.33398 17.5872Z" stroke="#E0E0E0" stroke-width="1.66667" stroke-linecap="round" stroke-linejoin="round"/>
</g>
</svg>
