<svg xmlns="http://www.w3.org/2000/svg" width="24" height="39" viewBox="0 0 24 39" fill="none">
  <path d="M1.53418 20.5765V17.779C3.15148 17.1279 4.91807 16.7695 6.76834 16.7695C8.61861 16.7695 10.3852 17.1279 12.0025 17.779V20.5765" stroke="#FF97D5" stroke-width="1.14219"/>
  <path d="M4.3877 11.5368C4.3877 12.1681 4.6385 12.7736 5.08493 13.22C5.53136 13.6665 6.13686 13.9173 6.76822 13.9173C7.39957 13.9173 8.00505 13.6665 8.45147 13.22C8.8979 12.7736 9.14872 12.1681 9.14872 11.5368C9.14872 10.9054 8.8979 10.2999 8.45147 9.85349C8.00505 9.40706 7.39957 9.15625 6.76822 9.15625C6.13686 9.15625 5.53136 9.40706 5.08493 9.85349C4.6385 10.2999 4.3877 10.9054 4.3877 11.5368Z" stroke="#FF97D5" stroke-width="1.14219"/>
  <path d="M12.002 31.0452V28.2477C13.6192 27.5966 15.3859 27.2383 17.2361 27.2383C19.0864 27.2383 20.853 27.5966 22.4703 28.2477V31.0452" stroke="#FF97D5" stroke-width="1.14219"/>
  <path d="M14.8564 22.0055C14.8564 22.6368 15.1073 23.2424 15.5537 23.6888C16.0001 24.1352 16.6057 24.386 17.237 24.386C17.8683 24.386 18.4738 24.1352 18.9202 23.6888C19.3667 23.2424 19.6175 22.6368 19.6175 22.0055C19.6175 21.3742 19.3667 20.7687 18.9202 20.3222C18.4738 19.8758 17.8683 19.625 17.237 19.625C16.6057 19.625 16.0001 19.8758 15.5537 20.3222C15.1073 20.7687 14.8564 21.3742 14.8564 22.0055Z" stroke="#FF97D5" stroke-width="1.14219"/>
  <path d="M2.86621 23.0508V27.048C2.86621 28.3096 3.8888 29.3322 5.15021 29.3322H9.14719" stroke="white" stroke-opacity="0.5" stroke-width="1.14219"/>
  <path d="M12.9531 10.4883H19.2341C20.4955 10.4883 21.5181 11.5109 21.5181 12.7724V17.9118" stroke="white" stroke-opacity="0.5" stroke-width="1.14219"/>
</svg>