<svg xmlns="http://www.w3.org/2000/svg" width="24" height="39" viewBox="0 0 24 39" fill="none">
<path d="M6.50195 23.5272C6.50195 23.5272 8.88108 22.0996 11.7361 22.0996C14.5911 22.0996 16.9703 23.5272 16.9703 23.5272" stroke="#FF97D5" stroke-width="1.14219"/>
<path d="M8.88184 17.3418C8.88184 17.7168 8.95568 18.0881 9.09919 18.4345C9.24265 18.781 9.45299 19.0957 9.71815 19.3609C9.98331 19.6261 10.2981 19.8364 10.6445 19.9799C10.991 20.1234 11.3623 20.1973 11.7373 20.1973C12.1123 20.1973 12.4836 20.1234 12.83 19.9799C13.1765 19.8364 13.4913 19.6261 13.7564 19.3609C14.0216 19.0957 14.2319 18.781 14.3754 18.4345C14.5189 18.0881 14.5928 17.7168 14.5928 17.3418C14.5928 16.9668 14.5189 16.5955 14.3754 16.2491C14.2319 15.9026 14.0216 15.5879 13.7564 15.3227C13.4913 15.0575 13.1765 14.8472 12.83 14.7037C12.4836 14.5602 12.1123 14.4863 11.7373 14.4863C11.3623 14.4863 10.991 14.5602 10.6445 14.7037C10.2981 14.8472 9.98331 15.0575 9.71815 15.3227C9.45299 15.5879 9.24265 15.9026 9.09919 16.2491C8.95568 16.5955 8.88184 16.9668 8.88184 17.3418Z" stroke="#FF97D5" stroke-width="1.14219"/>
<path d="M2.45898 10.3477H5.78619V13.6749H2.45898V10.3477Z" stroke="white" stroke-opacity="0.7" stroke-width="1.14219"/>
<path d="M17.4463 12.0111C17.4463 10.9597 18.2985 10.1074 19.3499 10.1074C20.4013 10.1074 21.2536 10.9597 21.2536 12.0111C21.2536 13.0624 20.4013 13.9147 19.3499 13.9147C18.2985 13.9147 17.4463 13.0624 17.4463 12.0111Z" stroke="white" stroke-opacity="0.7" stroke-width="1.14219"/>
<path d="M2.21973 27.2396C2.21973 26.1882 3.07202 25.3359 4.12338 25.3359C5.17474 25.3359 6.02703 26.1882 6.02703 27.2396C6.02703 28.291 5.17474 29.1433 4.12338 29.1433C3.07202 29.1433 2.21973 28.291 2.21973 27.2396Z" stroke="white" stroke-opacity="0.7" stroke-width="1.14219"/>
<path d="M17.6846 25.5742H21.0159V28.9056H17.6846V25.5742Z" stroke="white" stroke-opacity="0.7" stroke-width="1.14219"/>
<path d="M7.92923 9.87295C9.13113 9.40375 10.4207 9.15625 11.7359 9.15625C13.0511 9.15625 14.3407 9.40375 15.5426 9.87295M15.5426 29.3777C14.3407 29.8468 13.0511 30.0943 11.7359 30.0943C10.4207 30.0943 9.13113 29.8468 7.92923 29.3777M21.4876 15.8184C21.9568 17.0203 22.2042 18.31 22.2042 19.6253C22.2042 20.9406 21.9568 22.2303 21.4876 23.4322M1.98423 23.4322C1.51506 22.2303 1.26758 20.9406 1.26758 19.6253C1.26758 18.31 1.51506 17.0203 1.98423 15.8184" stroke="white" stroke-opacity="0.7" stroke-width="1.14219"/>
</svg>