<svg xmlns="http://www.w3.org/2000/svg" width="23" height="39" viewBox="0 0 23 39" fill="none">
  <path d="M7.47081 29.7007H2.53245C1.8506 29.7007 1.29785 29.148 1.29785 28.4661V23.5273" stroke="white" stroke-opacity="0.5" stroke-width="1.2348"/>
  <path d="M21.8741 23.5273V28.4661C21.8741 29.148 21.3214 29.7007 20.6396 29.7007H15.7012" stroke="white" stroke-opacity="0.5" stroke-width="1.2348"/>
  <path d="M1.29785 15.2964V10.3577C1.29785 9.67583 1.8506 9.12305 2.53245 9.12305H7.47081" stroke="white" stroke-opacity="0.5" stroke-width="1.2348"/>
  <path d="M15.7012 9.12305H20.6396C21.3214 9.12305 21.8741 9.67583 21.8741 10.3577V15.2964" stroke="white" stroke-opacity="0.5" stroke-width="1.2348"/>
  <path d="M4.86523 24.5526C4.86523 24.5526 7.55367 23.127 11.5863 23.127C15.6189 23.127 18.3073 24.5526 18.3073 24.5526" stroke="#FF97D5" stroke-width="1.2348"/>
  <path d="M8.19141 17.0828C8.19141 18.9581 9.71138 20.4782 11.5865 20.4782C13.4616 20.4782 14.9817 18.9581 14.9817 17.0828C14.9817 15.2076 13.4616 13.6875 11.5865 13.6875C9.71138 13.6875 8.19141 15.2076 8.19141 17.0828Z" stroke="#FF97D5" stroke-width="1.2348"/>
</svg>